<svg xmlns="http://www.w3.org/2000/svg" viewBox="0 0 64 64" shape-rendering="geometricPrecision">
  <rect width="64" height="64" rx="10" fill="#1b3454"/>
  <rect x="0" y="0" width="64" height="4" rx="2" fill="#5aafd4"/>
  <path fill="#ffffff" d="M31.037109375 14.880859375Q31.037109375 15.759765625 30.568359375 16.365234375Q30.099609375 16.970703125 29.142578125 16.970703125Q28.537109375 16.970703125 28.078125 16.716796875Q27.619140625 16.462890625 27.228515625 16.033203125Q26.837890625 15.603515625 26.505859375 15.056640625Q26.173828125 14.509765625 25.939453125 14.177734375Q24.630859375 14.236328125 23.91796875 16.00390625Q23.205078125 17.771484375 23.205078125 21.638671875V23.611328125H28.166015625V25.486328125H23.205078125V39.314453125Q23.205078125 39.998046875 23.46875 40.427734375Q23.732421875 40.857421875 24.298828125 41.072265625Q24.767578125 41.248046875 25.548828125 41.35546875Q26.330078125 41.462890625 26.896484375 41.501953125V42.791015625H16.740234375V41.501953125Q17.189453125 41.462890625 17.66796875 41.423828125Q18.146484375 41.384765625 18.498046875 41.267578125Q19.044921875 41.091796875 19.30859375 40.65234375Q19.572265625 40.212890625 19.572265625 39.509765625V25.486328125H15.763671875V23.611328125H19.572265625V22.380859375Q19.572265625 17.986328125 21.84765625 15.26171875Q24.123046875 12.537109375 27.541015625 12.537109375Q29.279296875 12.537109375 30.158203125 13.220703125Q31.037109375 13.904296875 31.037109375 14.880859375Z"/>
  <path fill="#5aafd4" d="M47.259765625 33.142578125Q47.259765625 37.478515625 44.525390625 40.427734375Q41.791015625 43.376953125 38.177734375 43.376953125Q36.595703125 43.376953125 35.0625 42.888671875Q33.529296875 42.400390625 32.181640625 41.580078125L30.736328125 43.826171875L29.525390625 43.552734375Q29.623046875 42.107421875 29.662109375 40.076171875Q29.701171875 38.044921875 29.701171875 36.150390625V17.087890625Q29.701171875 16.423828125 29.3984375 15.759765625Q29.095703125 15.095703125 28.626953125 14.802734375Q28.255859375 14.548828125 27.38671875 14.421875Q26.517578125 14.294921875 25.990234375 14.255859375V13.005859375L33.060546875 12.556640625L33.333984375 12.849609375V25.544921875L33.470703125 25.583984375Q34.681640625 24.294921875 36.1171875 23.650390625Q37.552734375 23.005859375 38.939453125 23.005859375Q42.494140625 23.005859375 44.876953125 25.818359375Q47.259765625 28.630859375 47.259765625 33.142578125ZM43.177734375 33.279296875Q43.177734375 31.833984375 42.865234375 30.330078125Q42.552734375 28.826171875 41.888671875 27.712890625Q41.224609375 26.580078125 40.150390625 25.876953125Q39.076171875 25.173828125 37.572265625 25.173828125Q36.205078125 25.173828125 35.1796875 25.7109375Q34.154296875 26.248046875 33.333984375 27.166015625V38.376953125Q33.451171875 38.845703125 33.79296875 39.470703125Q34.134765625 40.095703125 34.720703125 40.662109375Q35.306640625 41.208984375 36.048828125 41.55078125Q36.791015625 41.892578125 37.865234375 41.892578125Q40.248046875 41.892578125 41.712890625 39.587890625Q43.177734375 37.283203125 43.177734375 33.279296875Z"/>
</svg>
